<?xml version="1.0" encoding="UTF-8"?>
<svg baseProfile="tiny" version="1.2" viewBox="0 0 1300 510" xml:space="preserve" xmlns="http://www.w3.org/2000/svg">
	<path d="m50.14 338.86l2.25-12.76h22.8c2.51 0 4.85-0.21 7.01-0.63 2.03-0.42 3.78-1.25 5.25-2.51 0.82-0.7 1.71-1.6 2.68-2.72 0.96-1.12 1.96-2.65 3.01-4.6 0.9-1.95 1.82-4.39 2.76-7.32 0.93-2.93 1.76-6.41 2.47-10.46l0.04-0.21 29.1-165.01h12.97l-29.1 165.01c-1.6 9.06-3.78 16.31-6.55 21.75-2.63 5.44-5.99 9.83-10.06 13.18-2.08 1.53-4.14 2.75-6.19 3.66-2.04 0.91-4.01 1.57-5.89 1.99-1.86 0.28-3.6 0.45-5.22 0.52s-3.12 0.1-4.51 0.1h-22.82z" fill="#979B97"/>
	<path d="m263.45 164.23l-21.31 120.87h-13.18l1.95-11.08c-3.42 2.79-7.06 5.06-10.92 6.8s-7.76 3.1-11.7 4.08c-6.43 1.67-12.78 2.51-19.06 2.51-2.23 0-4.24-0.07-6.03-0.21s-4.38-0.49-7.76-1.05c-3.36-0.7-6.89-2.26-10.57-4.71-3.68-2.44-6.45-5.12-8.31-8.05-2.68-4.6-4.02-9.2-4.05-13.8s0.32-8.92 1.03-12.97l14.53-82.4h13.18l-14.49 82.19c-0.34 1.95-0.63 3.73-0.84 5.33s-0.25 3.17-0.1 4.71c0.01 1.54 0.22 3.07 0.65 4.6 0.42 1.54 1.12 3.14 2.08 4.81 0.62 1.26 2.01 2.65 4.18 4.18 2.17 1.54 4.72 2.65 7.67 3.35 4.04 0.84 7.73 1.25 11.07 1.25 2.65 0 5.22-0.17 7.73-0.52 2.5-0.35 5.14-0.87 7.91-1.57 3.8-0.97 7.39-2.37 10.78-4.18 3.38-1.81 6.44-4.11 9.16-6.9 2.04-2.09 3.73-3.97 5.07-5.65 1.34-1.67 2.22-2.93 2.65-3.76l15.49-87.84h13.19z" fill="#979B97"/>
	<path d="m285.97 164.43h14.22l25.66 99.97 60.92-99.97h14.43l-73.6 120.88h-10.67l-30.96-120.88z" fill="#979B97"/>
	<path d="m397.77 264.4c-0.35-2.79-0.42-5.51-0.24-8.16 0.19-2.65 0.48-5.09 0.87-7.32l0.04-0.21c0.34-1.95 0.9-4.53 1.68-7.74 0.77-3.21 2.11-6.62 4-10.25 1.89-3.62 4.6-7.11 8.12-10.46s8.08-5.92 13.7-7.74c9.3-2.93 18.2-5.19 26.71-6.8 8.51-1.6 16.1-3.17 22.79-4.71 2.77-0.7 5.41-1.22 7.91-1.57s4.77-0.8 6.83-1.36c3.94-0.97 6.36-2.09 7.28-3.35 1.29-0.97 2.11-4.04 2.46-9.2 0.07-2.79-0.23-4.84-0.9-6.17-0.68-1.32-2.02-2.2-4.04-2.61-0.39-0.14-0.87-0.21-1.43-0.21s-1.03-0.07-1.43-0.21c-0.56 0-1.11-0.07-1.64-0.21l-59.85 0.21 2.32-13.18h60.26c0.56 0 1.46 0.04 2.7 0.1 1.24 0.07 2.6 0.28 4.07 0.63s2.98 0.91 4.52 1.67c1.54 0.77 3.02 1.85 4.45 3.24h0.21c1.26 1.54 2.22 3.24 2.86 5.12s1.02 3.73 1.11 5.54c0.21 1.95 0.23 3.84 0.05 5.65s-0.35 3.56-0.5 5.23l-11.06 62.74c-0.49 2.79-1.36 5.93-2.6 9.41-1.24 3.49-3.37 7.04-6.38 10.67-3.15 3.63-7.21 6.66-12.17 9.1s-10.82 3.87-17.59 4.29c-6.63 0.42-12.73 0.63-18.31 0.63-8.51 0-15.95-0.49-22.33-1.46s-11.56-2.86-15.53-5.65c-1.39-0.84-2.71-2.02-3.97-3.56-1.03-1.25-2.04-2.86-3.02-4.81-0.98-1.92-1.63-4.36-1.95-7.29zm13.42-3.76c0.68 4.05 2.14 6.83 4.38 8.37 0.99 0.7 2.4 1.4 4.23 2.09 1.83 0.7 4.1 1.25 6.82 1.67 5.12 0.98 11.73 1.46 19.82 1.46 2.65 0 4.85-0.03 6.61-0.1 1.75-0.07 3.65-0.14 5.68-0.21s3.83-0.17 5.39-0.31c2.84-0.28 5.23-0.63 7.19-1.05s3.62-0.97 5-1.67c1.51-0.7 2.77-1.46 3.75-2.3s1.9-1.67 2.74-2.51c1.57-1.81 2.81-3.87 3.7-6.17s1.46-4.57 1.72-6.8l7.74-43.92c-3.43 1.26-6.83 2.13-10.19 2.61-3.36 0.49-6.57 1.08-9.62 1.78-6.96 1.54-14.6 3.1-22.89 4.71-8.3 1.6-16.67 3.8-25.11 6.59-1.77 0.56-3.28 1.19-4.51 1.88-1.24 0.7-2.35 1.46-3.33 2.3-1.72 1.81-3.19 3.84-4.42 6.06-1.23 2.23-2.15 4.5-2.77 6.8-0.61 2.3-1.09 4.43-1.44 6.38l-0.07 0.42-0.04 0.21-0.04 0.21c-0.3 1.67-0.52 3.52-0.66 5.54s-0.04 4 0.32 5.96z" fill="#979B97"/>
	<path d="m524.32 285.94c0.51-2.09 0.98-3.97 1.41-5.65 0.41-1.53 0.76-2.96 1.07-4.29 0.3-1.32 0.56-2.2 0.77-2.61 7.87 0.42 14.17 0.7 18.88 0.84s8.24 0.28 10.59 0.42c2.76 0.14 4.7 0.21 5.82 0.21 4.46 0 8.12-0.21 10.98-0.63s5.34-1.05 7.44-1.88c3.55-1.95 6.35-4.22 8.41-6.8s3.31-4.36 3.76-5.33c0.47-1.11 0.98-2.41 1.52-3.87s0.87-2.96 1-4.5c0.29-1.67 0.4-3.48 0.33-5.44-0.07-1.95-0.45-3.76-1.13-5.44-0.82-1.67-1.97-3.27-3.44-4.81-1.47-1.53-3.72-2.86-6.72-3.97-4.28-1.81-8.71-3.59-13.28-5.33-4.58-1.74-10.01-3.73-16.31-5.96-1.97-0.7-3.98-1.74-6.03-3.14-2.05-1.39-3.92-3.27-5.59-5.65-1.67-2.37-2.94-5.05-3.81-8.05s-0.9-6.73-0.12-11.19c0.79-4.46 2.23-8.47 4.32-12.02 2.09-3.56 4.75-6.59 7.98-9.1s6.88-4.42 10.95-5.75c4.07-1.32 8.03-1.85 11.88-1.57h34.51l-2.21 12.55h-34.7c-2.79 0-5.26 0.39-7.42 1.15-2.16 0.77-3.96 1.71-5.41 2.82-1.62 1.25-3.01 2.82-4.18 4.71-1.17 1.88-2.01 4.29-2.53 7.22-0.44 2.51-0.43 4.6 0.04 6.27s1.21 3.21 2.22 4.6c0.87 1.4 1.96 2.55 3.26 3.45 1.3 0.91 2.42 1.5 3.35 1.78 6.3 2.23 11.77 4.22 16.41 5.96 4.64 1.75 9.17 3.52 13.6 5.33 4.02 1.67 7.29 3.73 9.79 6.17s4.41 5.06 5.73 7.84c1.32 2.79 2.08 5.58 2.29 8.37 0.2 2.79 0.06 5.58-0.43 8.37-0.03 0.98-0.23 2.09-0.59 3.35-0.34 1.12-0.74 2.44-1.22 3.97-0.48 1.54-1.16 3.21-2.04 5.02-1.59 3.49-2.92 5.86-3.97 7.11-2.05 2.93-4.46 5.54-7.24 7.84s-5.89 4.15-9.34 5.54-7.14 2.33-11.06 2.82-8.39 0.73-13.41 0.73c-2.93 0-6.44-0.04-10.54-0.1-4.1-0.07-8.08-0.25-11.93-0.52-4.55-0.28-9.11-0.56-13.66-0.84z" fill="#979B97"/>
	<path d="m637.68 278.62c-4.17-4.04-6.93-7.74-8.29-11.08-1.36-3.35-2.14-6.83-2.34-10.46-0.49-4.32-0.42-9.1 0.23-14.33 0.64-5.23 1.57-11.26 2.77-18.09 1.23-6.97 2.44-13.04 3.63-18.19 1.19-5.16 2.72-9.9 4.6-14.22 3.78-8.78 9.93-15.96 18.44-21.54 2.52-1.67 6.86-3.56 13.02-5.65 6.15-2.09 14.75-3.21 25.79-3.35 5.57 0 10.4 0.31 14.47 0.94s7.6 1.4 10.57 2.3c2.98 0.91 5.38 1.88 7.22 2.93s3.24 1.99 4.21 2.82c6.38 5.72 9.92 12.9 10.63 21.54 0.35 4.32 0.21 9.06-0.42 14.22s-1.49 11.22-2.58 18.19c-1.35 6.83-2.62 12.86-3.82 18.09s-2.74 10.01-4.62 14.33c-0.95 2.23-1.89 4.18-2.81 5.86-0.92 1.67-2.05 3.31-3.38 4.91s-2.91 3.24-4.74 4.91-4.11 3.56-6.85 5.65-6.03 3.73-9.86 4.91c-3.84 1.19-7.66 2.09-11.46 2.72-3.81 0.63-7.36 1.01-10.66 1.15s-5.86 0.21-7.67 0.21-4.31-0.07-7.49-0.21-6.57-0.52-10.15-1.15c-3.59-0.63-7.02-1.53-10.29-2.72-3.26-1.17-5.98-2.74-8.15-4.69zm56.88-5.86c3.91-0.84 7.25-1.99 10.02-3.45s5.08-3.1 6.93-4.91 3.39-3.62 4.62-5.44c1.22-1.81 2.2-3.56 2.91-5.23 0.69-1.53 1.46-3.94 2.32-7.22 0.86-3.27 1.72-6.59 2.59-9.93 0.94-3.76 1.81-7.88 2.59-12.34 1.18-6.69 2-12.37 2.48-17.04 0.47-4.67 0.58-8.61 0.31-11.82-0.41-3.21-1.21-5.99-2.39-8.37-1.19-2.37-2.8-4.46-4.85-6.27-1.99-1.39-5.13-2.75-9.42-4.08-4.3-1.32-10.56-1.99-18.79-1.99-8.02 0.42-14.3 1.05-18.84 1.88s-8.52 2.23-11.93 4.18c-3.14 1.95-5.63 4.08-7.5 6.38s-3.58 5.06-5.12 8.26c-1.4 3.21-2.66 7.15-3.76 11.82-1.11 4.67-2.24 10.35-3.42 17.04-0.76 4.32-1.34 7.98-1.73 10.98s-0.74 6.14-1.03 9.41c-0.3 3.28-0.38 6.1-0.24 8.47 0.14 4.74 1.63 8.92 4.48 12.55 2.84 3.63 7.31 6 13.39 7.11 2.52 0.7 5.26 1.19 8.21 1.46 2.95 0.28 6.02 0.42 9.23 0.42 1.51 0.14 3.18 0.14 5.02 0 1.56-0.14 3.51-0.31 5.84-0.52 2.33-0.2 5.02-0.65 8.08-1.35z" fill="#979B97"/>
	<path d="m812.25 144.15c-0.82 0.7-1.72 1.64-2.69 2.82-0.98 1.19-1.99 2.75-3.03 4.71-0.85 1.67-1.62 3.42-2.28 5.23-0.67 1.81-4.38 13.4-5.09 16.61h35.13l-2.25 12.76h-35.34l-16 98.83h-12.97l16-98.83h-21.53l2.25-12.76h21.54c0.8-3.76 4.66-15.95 5.5-18.39 0.85-2.44 1.91-4.91 3.19-7.42 2.79-5.57 6.29-9.97 10.48-13.18 2.08-1.53 4.15-2.75 6.19-3.66s4.07-1.57 6.1-1.99c2-0.28 3.84-0.45 5.53-0.52s3.22-0.1 4.62-0.1h31.16l-2.25 12.76h-31.37c-2.65 0-5.06 0.21-7.22 0.63-2.3 0.41-4.19 1.24-5.67 2.5z" fill="#979B97"/>
	<path d="m911.64 283.64c-5.6 0.83-11.14 2-16.72 2.97-6.8 1.18-14.51 2.07-20.77-1.5-6.06-3.45-8.94-9.59-8.71-16.48 0.16-4.69 1.26-9.29 1.99-13.92 0.92-5.8 1.83-11.6 2.75-17.4 0.47-2.97 0.94-5.95 1.41-8.92 0.44-2.78 1.37-5.88 1.37-8.69 1.23-7.8 2.46-15.59 3.69-23.39 0.09-0.56 1.34-10.05 1.59-10.05h-17.78l2.25-12.76h17.78l9.41-45.26h13.18l-9.41 45.26h35.13l-2.25 12.76-33.98-0.41c-1.72 9.76-1.64 11.03-3.49 21.13-1.85 10.11-3.51 19.31-4.97 27.61-1.69 9.56-3.24 19.14-4.91 28.7-0.49 2.87-1.08 6.55 1.11 8.85 4.47 4.68 12.17 2.11 17.62 1.27 4.48-0.68 8.94-1.49 13.38-2.41 0.05 0.94 0.55 12.61 0.33 12.64z" fill="#979B97"/>
	<path d="m321.17 327.88v14.43h13.93v3.72h-13.93v18.65h-4.21v-40.58h21.36v3.79h-17.15z" fill="#646664"/>
	<path d="m358.63 365.46c-7.36 0-13.29-5.79-13.29-13.36s5.93-13.43 13.29-13.43 13.29 5.86 13.29 13.43-5.93 13.36-13.29 13.36zm0-23.22c-5.22 0-9.36 4.29-9.36 9.86s4.14 9.79 9.36 9.79c5.21 0 9.36-4.21 9.36-9.79s-4.14-9.86-9.36-9.86z" fill="#646664"/>
	<path d="m388.72 365.46c-3.86 0-6.36-1.36-7.36-1.86v-3.86c0.93 0.43 4.21 2.36 7.36 2.36 2.79 0 5.29-1.22 5.29-3.72 0-2.43-3.71-3.79-5.86-4.93-2.5-1.36-7-3.5-7-7.64 0-4.43 3.64-7.14 8.72-7.14 3.71 0 6.29 1.43 7 1.86v3.64c-1.86-1.14-4.64-2.22-6.79-2.22-3.21 0-5.14 1.57-5.14 3.5 0 2.36 3.14 3.64 5.29 4.64 2.36 1.14 7.57 3.36 7.57 8.07-0.01 4.87-4.15 7.3-9.08 7.3z" fill="#646664"/>
	<path d="m419.63 365.46c-3.64 0-7.36-1.93-7.36-8.93v-14.14h-5.36l1.07-2.93h4.29v-9.93h3.86v9.93h9.29l-1.07 2.93h-8.22v14.29c0 3.93 1.57 5.22 4.36 5.22 2.21 0 4.36-1.29 5.14-1.64v3.5c-0.64 0.34-2.78 1.7-6 1.7z" fill="#646664"/>
	<path d="m438.31 352.45c0.36 6.43 4.93 9.57 9.72 9.57 5.22 0 8.57-2.43 9.57-2.93v3.57c-0.71 0.43-4.14 2.79-10 2.79-6.79 0-13.14-5-13.14-13.36 0-8.21 6.36-13.43 13.22-13.43 5.79 0 10.64 4.64 10.64 11.93v1.86h-20.01zm9-10.35c-5.79 0-8.07 4.43-8.79 7.36h16.07c0.01-3.94-2.85-7.36-7.28-7.36z" fill="#646664"/>
	<path d="m480.26 342.31c-3.22 0-6.22 3-6.93 3.72v18.65h-3.86v-25.22h3.86v3.64c0.79-0.86 3.36-4.43 7.5-4.43 1.14 0 1.79 0.14 2.21 0.29v3.64c-0.43 0-1.35-0.29-2.78-0.29z" fill="#646664"/>
	<path d="m497.97 334.52l-3.29-3.21 3.21-3.21 3.29 3.21-3.21 3.21zm-1.93 30.15v-25.22h3.86v25.22h-3.86z" fill="#646664"/>
	<path d="m531.08 364.67v-17c0-3.29-1.86-5.43-5-5.43-4.57 0-7.57 4.21-8.14 4.93v17.5h-3.86v-25.22h3.86v3.57c0.57-0.64 3.36-4.36 8.72-4.36 4.57 0 8.29 3.07 8.29 8.72v17.29h-3.87z" fill="#646664"/>
	<path d="m565.24 342.45c1.71 1.86 2.71 4.29 2.71 6.93 0 5.93-5 10.79-11.29 10.79-1.36 0-2.64-0.21-3.86-0.64l-2.64 3.5c0.64 0.07 1 0.14 1.36 0.29l9.14 2.93c3.86 1.22 7.57 3.64 7.57 8.57 0 5.22-5.14 8.79-11.07 8.79-7.36 0-12.14-4.57-12.14-9.43 0-4.5 3.86-7.14 4.86-7.79l-4.64-1.5 4.93-6.64c-2.93-2-4.79-5.22-4.79-8.79 0-5.93 5.07-10.79 11.29-10.79 3.07 0 5.86 1.14 7.86 3l2.21-2.22h5.07v3h-6.57zm-5.5 27.01l-6.57-2.07c-0.93 0.57-1.79 1.21-2.5 2-1 1.14-2 2.72-2 4.72 0 3.36 3.43 6.21 8.5 6.21s7.43-2.86 7.43-5.5c0-2.65-2-4.44-4.86-5.36zm-3.07-27.44c-4.14 0-7.57 3.21-7.57 7.43 0 4.14 3.43 7.36 7.57 7.36 4.21 0 7.64-3.21 7.64-7.36 0-4.21-3.43-7.43-7.64-7.43z" fill="#646664"/>
	<path d="m605.49 364.67l-5.72 16.22h-3.86l5.72-16.22-9.07-25.22h4.14l6.86 20.15 6.93-20.15h4.14l-9.14 25.22z" fill="#646664"/>
	<path d="m633.63 365.46c-7.36 0-13.29-5.79-13.29-13.36s5.93-13.43 13.29-13.43 13.29 5.86 13.29 13.43-5.93 13.36-13.29 13.36zm0-23.22c-5.22 0-9.36 4.29-9.36 9.86s4.14 9.79 9.36 9.79c5.21 0 9.36-4.21 9.36-9.79s-4.14-9.86-9.36-9.86z" fill="#646664"/>
	<path d="m672.85 364.67v-3.21c-0.71 0.93-2.93 4-8.07 4-5 0-8.57-3.5-8.57-9.57v-16.43h3.86v16.07c0 4.07 2.36 6.29 5.64 6.29 4.5 0 6.64-4.21 7.14-5.07v-17.29h3.86v25.22h-3.86z" fill="#646664"/>
	<path d="m700.95 342.31c-3.22 0-6.22 3-6.93 3.72v18.65h-3.86v-25.22h3.86v3.64c0.79-0.86 3.36-4.43 7.5-4.43 1.14 0 1.79 0.14 2.21 0.29v3.64c-0.42 0-1.35-0.29-2.78-0.29z" fill="#646664"/>
	<path d="m732.38 365.46c-3.86 0-6.36-1.36-7.36-1.86v-3.86c0.93 0.43 4.21 2.36 7.36 2.36 2.79 0 5.29-1.22 5.29-3.72 0-2.43-3.71-3.79-5.86-4.93-2.5-1.36-7-3.5-7-7.64 0-4.43 3.64-7.14 8.72-7.14 3.71 0 6.29 1.43 7 1.86v3.64c-1.86-1.14-4.64-2.22-6.79-2.22-3.21 0-5.14 1.57-5.14 3.5 0 2.36 3.14 3.64 5.29 4.64 2.36 1.14 7.57 3.36 7.57 8.07-0.01 4.87-4.15 7.3-9.08 7.3z" fill="#646664"/>
	<path d="m768.76 364.67v-3.21c-0.71 0.93-2.93 4-8.07 4-5 0-8.57-3.5-8.57-9.57v-16.43h3.86v16.07c0 4.07 2.36 6.29 5.64 6.29 4.5 0 6.64-4.21 7.14-5.07v-17.29h3.86v25.22h-3.86z" fill="#646664"/>
	<path d="m796.84 365.46c-7.5 0-13.57-5.5-13.57-13.29 0-7.71 5.93-13.43 13.57-13.43 4.14 0 7.72 1.86 8.79 2.43v3.72c-0.93-0.5-4.29-2.5-8.72-2.5-5.72 0-9.64 4.29-9.64 9.79 0 5.79 4.29 9.65 9.64 9.65 4.57 0 8.07-2.07 8.86-2.5v3.57c-0.92 0.56-3.85 2.56-8.93 2.56z" fill="#646664"/>
	<path d="m827.2 365.46c-7.5 0-13.57-5.5-13.57-13.29 0-7.71 5.93-13.43 13.57-13.43 4.14 0 7.72 1.86 8.79 2.43v3.72c-0.93-0.5-4.29-2.5-8.72-2.5-5.72 0-9.64 4.29-9.64 9.79 0 5.79 4.29 9.65 9.64 9.65 4.57 0 8.07-2.07 8.86-2.5v3.57c-0.93 0.56-3.86 2.56-8.93 2.56z" fill="#646664"/>
	<path d="m847.84 352.45c0.36 6.43 4.93 9.57 9.72 9.57 5.22 0 8.57-2.43 9.57-2.93v3.57c-0.71 0.43-4.14 2.79-10 2.79-6.79 0-13.14-5-13.14-13.36 0-8.21 6.36-13.43 13.22-13.43 5.79 0 10.64 4.64 10.64 11.93v1.86h-20.01zm9-10.35c-5.79 0-8.07 4.43-8.79 7.36h16.07c0.01-3.94-2.85-7.36-7.28-7.36z" fill="#646664"/>
	<path d="m883.77 365.46c-3.86 0-6.36-1.36-7.36-1.86v-3.86c0.93 0.43 4.21 2.36 7.36 2.36 2.79 0 5.29-1.22 5.29-3.72 0-2.43-3.71-3.79-5.86-4.93-2.5-1.36-7-3.5-7-7.64 0-4.43 3.64-7.14 8.72-7.14 3.71 0 6.29 1.43 7 1.86v3.64c-1.86-1.14-4.64-2.22-6.79-2.22-3.21 0-5.14 1.57-5.14 3.5 0 2.36 3.14 3.64 5.29 4.64 2.36 1.14 7.57 3.36 7.57 8.07-0.01 4.87-4.15 7.3-9.08 7.3z" fill="#646664"/>
	<path d="m908.27 365.46c-3.86 0-6.36-1.36-7.36-1.86v-3.86c0.93 0.43 4.21 2.36 7.36 2.36 2.79 0 5.29-1.22 5.29-3.72 0-2.43-3.71-3.79-5.86-4.93-2.5-1.36-7-3.5-7-7.64 0-4.43 3.64-7.14 8.72-7.14 3.71 0 6.29 1.43 7 1.86v3.64c-1.86-1.14-4.64-2.22-6.79-2.22-3.21 0-5.14 1.57-5.14 3.5 0 2.36 3.14 3.64 5.29 4.64 2.36 1.14 7.57 3.36 7.57 8.07-0.01 4.87-4.15 7.3-9.08 7.3z" fill="#646664"/>
		<path d="m1237.9 126.4h-232.18c-6.59 0-11.99 5.39-11.99 11.99v20.79c0 6.59 5.39 11.99 11.99 11.99h208.3c1.09-1.87 2.17-3.77 3.26-5.68-6.89-2.43-11.84-8.98-11.84-16.7 0-9.79 7.93-17.72 17.72-17.72s17.72 7.93 17.72 17.72-7.93 17.72-17.72 17.72c-1.28 0-2.53-0.14-3.73-0.4-0.71 1.6-1.47 3.29-2.3 5.06h20.77c6.59 0 11.99-5.39 11.99-11.99v-20.79c0-6.6-5.4-11.99-11.99-11.99z" fill="#458FC1"/>
		<g fill="#458FC1">
			<path d="m1120.5 287.91c-1.46-2.58-2.3-5.55-2.3-8.72 0-9.79 7.93-17.72 17.72-17.72 3.58 0 6.9 1.07 9.69 2.89 2.39-2.45 4.79-4.96 7.19-7.55h-147.09c-6.59 0-11.99 5.39-11.99 11.99v20.8c0 6.59 5.39 11.99 11.99 11.99h97.82c5.52-4.19 11.19-8.74 16.97-13.68z"/>
			<path d="m1237.9 256.81h-74.37c-3.89 4.52-7.98 9.04-12.29 13.5 1.52 2.61 2.41 5.64 2.41 8.89 0 9.79-7.93 17.72-17.72 17.72-3.75 0-7.22-1.17-10.09-3.16-3.25 2.66-6.58 5.27-10.01 7.83h122.07c6.59 0 11.99-5.39 11.99-11.99v-20.8c0-6.6-5.4-11.99-11.99-11.99z"/>
		</g>
		<path d="m1237.9 320.69h-149.36c-15.69 9.2-32.96 17.1-51.93 23.04-0.35 9.48-8.12 17.06-17.69 17.06-9.79 0-17.72-7.93-17.72-17.72s7.93-17.72 17.72-17.72c9.43 0 17.11 7.37 17.67 16.65 10.64-4.43 24.63-11.22 40.68-21.32h-71.54c-6.59 0-11.99 5.39-11.99 11.99v20.79c0 6.59 5.39 11.99 11.99 11.99h232.18c6.59 0 11.99-5.39 11.99-11.99v-20.79c-0.01-6.59-5.41-11.98-12-11.98z" fill="#E8745F"/>
		<g fill="#E8745F">
			<path d="m1237.9 191.9h-30.93c-1 1.92-2.04 3.89-3.14 5.91 6.56 2.6 11.21 8.98 11.21 16.47 0 9.79-7.93 17.72-17.72 17.72-4.43 0-8.47-1.64-11.58-4.33-2 2.97-4.09 5.97-6.26 8.99h58.43c6.59 0 11.99-5.39 11.99-11.99v-20.8c-0.01-6.58-5.41-11.97-12-11.97z"/>
			<path d="m1181.5 222.32c-1.23-2.41-1.94-5.14-1.94-8.04 0-9.79 7.93-17.72 17.72-17.72 0.64 0 1.27 0.04 1.89 0.1 1.01-1.58 2.03-3.16 3.04-4.77h-196.52c-6.59 0-11.99 5.39-11.99 11.99v20.8c0 6.59 5.39 11.99 11.99 11.99h164.78c3.69-4.61 7.37-9.39 11.03-14.35z"/>
		</g>
</svg>
